<svg xmlns="http://www.w3.org/2000/svg" width="124.326" height="165.066" viewBox="0 0 124.326 165.066">
  <g id="Group_6546" data-name="Group 6546" transform="translate(-568.522 -439.649)">
    <g id="Group_6545" data-name="Group 6545" transform="translate(575.021 439.649)">
      <path id="Path_7203" data-name="Path 7203" d="M336.259,153.9c1.677,8.97-5.58,15.593-13.831,13.145-3.973-1.179-7.353-3.482-10.742-5.762a30.083,30.083,0,0,0-6.506-3.649,6.655,6.655,0,0,0-5.478.372,13.252,13.252,0,0,0-6.809,15.293,21.362,21.362,0,0,0,6.306,9.777,92.836,92.836,0,0,0,13.008,9.823A58.857,58.857,0,0,1,330.2,211.155c.806,1.3,1.326,1.733,2.573.372,4.16-4.533,9.242-8,14-11.852a58.341,58.341,0,0,0,7.5-7.224,20.273,20.273,0,0,0,3.924-6.842,13.084,13.084,0,0,0-6.221-16.109,7.171,7.171,0,0,0-7.339-.206,50.985,50.985,0,0,0-6.9,4.752,37.432,37.432,0,0,1-8.274,5.1c-7.136,2.951-14.024-.847-15.3-8.448a12.429,12.429,0,0,1-.113-4.037c.521.814,1.032,1.634,1.564,2.44,2.9,4.389,6.973,5.539,11.779,3.368a39.724,39.724,0,0,0,7.365-4.851,45.084,45.084,0,0,1,6.59-4.4,13.908,13.908,0,0,1,13.072-.233,19.937,19.937,0,0,1,10.455,24.2c-1.686,5.534-5.041,9.942-9.19,13.792a81.13,81.13,0,0,1-7.946,6.738c-11.074,7.887-18.838,18.348-24.558,30.832a23.013,23.013,0,0,1,.35-11.606c2.619-7.993.361-14.487-5.322-20.241a71.27,71.27,0,0,0-10.916-8.8c-5.7-3.859-11.353-7.759-15.879-13.057-7.667-8.976-7.884-20.6-.48-28.661,5.945-6.471,13.047-7.592,20.626-3.16,2.542,1.486,4.949,3.2,7.455,4.747a28.1,28.1,0,0,0,3.788,2.03c5.453,2.3,9.247,1.01,12.271-4.081.3-.509.645-.993,1.186-1.821" transform="translate(-268.496 -140.644)" fill="#f7227f"/>
      <path id="Path_7204" data-name="Path 7204" d="M248,263.91c.165-1.947.284-3.909.514-5.857.144-1.218.418-2.623,1.995-2.57,1.632.055,1.6,1.466,1.692,2.711.628,8.321,1.6,16.579,5.656,24.083a31.253,31.253,0,0,0,11.651,11.8,12.187,12.187,0,0,0,3.345,1.356c4.472,1.115,7.173-1.021,7.457-5.61a9.958,9.958,0,0,0-4.033-9.1,14.532,14.532,0,0,1-4.489-5.03c-1.3-2.663-.733-5.324,1.345-6.68,1.053-.687,1.952-.852,2.469.615,1.038,2.939,3.2,4.878,5.759,6.473,8.9,5.542,15.063,13.179,17.869,23.374,1.329,4.828.677,9.149-3.355,12.549-3.407,2.874-7.038,3.069-10.377.294a72.929,72.929,0,0,0-14.122-8.947c-14.233-7.144-21.06-19.33-22.978-34.693-.2-1.571-.266-3.159-.4-4.762" transform="translate(-247.999 -198.073)" fill="#0199ec"/>
      <path id="Path_7205" data-name="Path 7205" d="M430.779,264.374c-1.168,17.7-8.01,31.91-24.892,39.776a55.819,55.819,0,0,0-12.981,8.61,6.28,6.28,0,0,1-6.531,1.161,10.793,10.793,0,0,1-7.213-12.752,37.171,37.171,0,0,1,14.286-22.194q2.462-1.816,5-3.527a10.948,10.948,0,0,0,4.671-5.66c.579-1.787,1.483-1.573,2.663-.685,2.007,1.51,2.461,4.4,1.048,6.968a17.849,17.849,0,0,1-4.777,5.093c-3.567,2.871-4.246,6.634-3.214,10.827.629,2.557,2.352,3.732,4.983,3.72a12.655,12.655,0,0,0,7.119-2.624c8.175-5.576,12.492-13.507,14.191-23.084a89.86,89.86,0,0,0,1.417-11.684c.056-1.24.049-2.667,1.644-2.783,1.761-.128,1.846,1.388,2.073,2.679a45.061,45.061,0,0,1,.511,6.157" transform="translate(-319.496 -198.099)" fill="#0199ec"/>
      <path id="Path_7211" data-name="Path 7211" d="M364.236,144.079a7.569,7.569,0,1,1,7.774-7.334,7.322,7.322,0,0,1-7.774,7.334" transform="translate(-307.467 -128.947)" fill="#f7227f"/>
      <path id="Path_7213" data-name="Path 7213" d="M276.012,293.23c-5.5-3.886-9.411-8.814-10.271-15.739-.4-3.216-1.132-6.4-.961-9.668.034-.642-.247-1.622.5-1.806.919-.226,1.1.851,1.4,1.47a24.571,24.571,0,0,1,2.063,6.682c.1.595.2,1.193.345,1.777.138.54.456,1.049,1.063,1,.732-.065.615-.725.622-1.24.02-1.572-.661-3.1-.228-5.121a7.216,7.216,0,0,1,2.382,5.283,82.75,82.75,0,0,0,1.113,10.115,36.86,36.86,0,0,0,1.968,7.251" transform="translate(-257.153 -203.812)" fill="#0199ec"/>
      <path id="Path_7214" data-name="Path 7214" d="M451.187,293.068c3.471-6.859,2.192-14.434,4.484-21.3a1.886,1.886,0,0,1,1.237-1.23c.424,1.593-.189,3.089-.249,4.593-.025.615-.389,1.545.593,1.668.843.106,1.022-.717,1.16-1.406a30.123,30.123,0,0,1,2.651-8.626,9.04,9.04,0,0,1,.813-1.083c4.168,5.624-2.736,23.615-10.689,27.389" transform="translate(-359.001 -203.644)" fill="#0199ec"/>
    </g>
    <g id="Group_6548" data-name="Group 6548" transform="translate(568.522 563.405)">
      <path id="Path_7215" data-name="Path 7215" d="M22.741-154.827H13.436l-1.748,5.192H6.17l9.014-25.259h5.964l8.945,25.259H24.369Zm-1.474-4.353-3.153-9.939-3.256,9.939Zm40.783,9.545H42.395v-4.456l13.041-16.331H42.72v-4.473h19.3v4.233L48.8-154.09H62.05Zm29.387-9.734v-15.526H96.8v15.526A13,13,0,0,1,95.55-153.1q-2.331,4.113-8.894,4.113T77.745-153.1a13,13,0,0,1-1.251-6.272v-15.526h5.364v15.526a8.768,8.768,0,0,0,.617,3.8q.96,2.125,4.181,2.125,3.2,0,4.164-2.125A8.768,8.768,0,0,0,91.438-159.368Z" transform="translate(10.015 174.894)" fill="#2a2d37"/>
      <path id="Path_7216" data-name="Path 7216" d="M-429.514-53.924l.158,1.083.231-.976,1.625-5.732h.914L-425-53.817l.226.993.175-1.106,1.275-5.619h1.089l-1.991,8.214h-.987l-1.693-5.986-.13-.626-.13.626-1.755,5.986h-.987l-1.986-8.214h1.083Zm10.849,2.7a2.667,2.667,0,0,1-2.02-.815,3.026,3.026,0,0,1-.779-2.181v-.192a3.663,3.663,0,0,1,.347-1.622,2.707,2.707,0,0,1,.97-1.117,2.44,2.44,0,0,1,1.351-.4,2.286,2.286,0,0,1,1.85.784,3.4,3.4,0,0,1,.66,2.245v.434h-4.135a2.17,2.17,0,0,0,.528,1.458,1.658,1.658,0,0,0,1.283.556,1.818,1.818,0,0,0,.936-.226,2.353,2.353,0,0,0,.671-.6l.638.5A2.563,2.563,0,0,1-418.665-51.222Zm-.13-5.472a1.392,1.392,0,0,0-1.061.46,2.235,2.235,0,0,0-.53,1.289h3.058v-.079a1.988,1.988,0,0,0-.429-1.233A1.311,1.311,0,0,0-418.795-56.694Zm12.784,2.753a3.022,3.022,0,0,1-.962,2.011,3.152,3.152,0,0,1-2.152.708,2.9,2.9,0,0,1-2.333-1.044,4.2,4.2,0,0,1-.877-2.793v-.79a4.68,4.68,0,0,1,.409-2.014,3.055,3.055,0,0,1,1.159-1.334,3.228,3.228,0,0,1,1.738-.465,2.968,2.968,0,0,1,2.1.731,3.058,3.058,0,0,1,.92,2.023H-407.1a2.35,2.35,0,0,0-.612-1.422,1.855,1.855,0,0,0-1.317-.44,1.939,1.939,0,0,0-1.628.767,3.52,3.52,0,0,0-.59,2.183v.8a3.618,3.618,0,0,0,.559,2.127,1.805,1.805,0,0,0,1.563.79,2.084,2.084,0,0,0,1.385-.409,2.27,2.27,0,0,0,.64-1.425Zm5.083,2.606a2.192,2.192,0,0,1-.147-.643,2.329,2.329,0,0,1-1.738.756,2.155,2.155,0,0,1-1.481-.511,1.652,1.652,0,0,1-.578-1.295,1.726,1.726,0,0,1,.725-1.481,3.418,3.418,0,0,1,2.039-.527h1.016v-.48a1.172,1.172,0,0,0-.327-.872,1.315,1.315,0,0,0-.965-.324,1.522,1.522,0,0,0-.937.282.831.831,0,0,0-.378.683h-1.049a1.44,1.44,0,0,1,.324-.883,2.214,2.214,0,0,1,.88-.674,2.961,2.961,0,0,1,1.221-.248,2.413,2.413,0,0,1,1.653.528,1.9,1.9,0,0,1,.621,1.453v2.81a3.435,3.435,0,0,0,.214,1.337v.09Zm-1.732-.8a1.834,1.834,0,0,0,.931-.254,1.536,1.536,0,0,0,.638-.66V-54.3h-.818q-1.918,0-1.918,1.123a.95.95,0,0,0,.327.767A1.258,1.258,0,0,0-402.659-52.13Zm7.2-4.372a3.127,3.127,0,0,0-.513-.039,1.375,1.375,0,0,0-1.393.874v4.333h-1.044v-6.1h1.016l.017.705a1.625,1.625,0,0,1,1.456-.818,1.066,1.066,0,0,1,.463.079Zm3.492,5.281a2.667,2.667,0,0,1-2.02-.815,3.026,3.026,0,0,1-.779-2.181v-.192a3.663,3.663,0,0,1,.347-1.622,2.707,2.707,0,0,1,.97-1.117,2.44,2.44,0,0,1,1.351-.4,2.286,2.286,0,0,1,1.85.784,3.4,3.4,0,0,1,.66,2.245v.434h-4.135a2.17,2.17,0,0,0,.527,1.458,1.658,1.658,0,0,0,1.283.556,1.818,1.818,0,0,0,.937-.226,2.353,2.353,0,0,0,.671-.6l.638.5A2.563,2.563,0,0,1-391.968-51.222Zm-.13-5.472a1.392,1.392,0,0,0-1.061.46,2.235,2.235,0,0,0-.53,1.289h3.058v-.079a1.988,1.988,0,0,0-.429-1.233A1.311,1.311,0,0,0-392.1-56.694Zm11.272,1.732h-3.447v3.628h-1.083v-8.214h5.089v.891h-4.006v2.81h3.447Zm1.3.519a3.606,3.606,0,0,1,.353-1.614,2.63,2.63,0,0,1,.982-1.106,2.672,2.672,0,0,1,1.436-.389,2.574,2.574,0,0,1,2.017.863,3.321,3.321,0,0,1,.77,2.3v.073a3.637,3.637,0,0,1-.341,1.6,2.591,2.591,0,0,1-.976,1.1,2.7,2.7,0,0,1-1.458.395,2.568,2.568,0,0,1-2.011-.863,3.3,3.3,0,0,1-.77-2.285Zm1.049.124a2.611,2.611,0,0,0,.471,1.63,1.508,1.508,0,0,0,1.261.615,1.5,1.5,0,0,0,1.264-.623,2.856,2.856,0,0,0,.468-1.746,2.607,2.607,0,0,0-.477-1.628,1.515,1.515,0,0,0-1.267-.623,1.5,1.5,0,0,0-1.247.615A2.835,2.835,0,0,0-378.479-54.319Zm8.767-2.183a3.127,3.127,0,0,0-.513-.039,1.375,1.375,0,0,0-1.393.874v4.333h-1.044v-6.1h1.016l.017.705a1.625,1.625,0,0,1,1.456-.818,1.066,1.066,0,0,1,.463.079Zm6.488,1.078,2.144-4.124h1.23l-2.832,5.151v3.063h-1.083V-54.4l-2.832-5.151h1.241Zm3.628.982a3.605,3.605,0,0,1,.353-1.614,2.63,2.63,0,0,1,.982-1.106,2.672,2.672,0,0,1,1.436-.389,2.574,2.574,0,0,1,2.017.863,3.321,3.321,0,0,1,.77,2.3v.073a3.637,3.637,0,0,1-.341,1.6,2.592,2.592,0,0,1-.976,1.1,2.7,2.7,0,0,1-1.458.395,2.568,2.568,0,0,1-2.011-.863,3.3,3.3,0,0,1-.77-2.285Zm1.049.124a2.612,2.612,0,0,0,.471,1.63,1.508,1.508,0,0,0,1.261.615,1.5,1.5,0,0,0,1.264-.623,2.856,2.856,0,0,0,.468-1.746,2.607,2.607,0,0,0-.477-1.628,1.516,1.516,0,0,0-1.267-.623,1.5,1.5,0,0,0-1.247.615A2.834,2.834,0,0,0-358.547-54.319Zm9.585,2.381a2.217,2.217,0,0,1-1.788.716,1.9,1.9,0,0,1-1.487-.567,2.454,2.454,0,0,1-.516-1.678v-3.972h1.044V-53.5q0,1.388,1.128,1.388A1.562,1.562,0,0,0-348.99-53v-4.44h1.044v6.1h-.993Zm5.551-4.564a3.127,3.127,0,0,0-.513-.039,1.375,1.375,0,0,0-1.393.874v4.333h-1.044v-6.1h1.016l.017.705a1.625,1.625,0,0,1,1.456-.818,1.066,1.066,0,0,1,.463.079Zm10.3,5.168H-334.2v-3.8h-4.141v3.8h-1.083v-8.214h1.083v3.532h4.141v-3.532h1.089Zm4.293.113a2.667,2.667,0,0,1-2.02-.815,3.026,3.026,0,0,1-.779-2.181v-.192a3.663,3.663,0,0,1,.347-1.622,2.707,2.707,0,0,1,.97-1.117,2.44,2.44,0,0,1,1.351-.4,2.286,2.286,0,0,1,1.85.784,3.4,3.4,0,0,1,.66,2.245v.434h-4.135a2.17,2.17,0,0,0,.528,1.458,1.658,1.658,0,0,0,1.283.556,1.818,1.818,0,0,0,.936-.226,2.353,2.353,0,0,0,.671-.6l.638.5A2.563,2.563,0,0,1-328.821-51.222Zm-.13-5.472a1.392,1.392,0,0,0-1.061.46,2.235,2.235,0,0,0-.53,1.289h3.058v-.079a1.988,1.988,0,0,0-.429-1.233A1.311,1.311,0,0,0-328.951-56.694Zm7.487,5.36a2.193,2.193,0,0,1-.147-.643,2.329,2.329,0,0,1-1.738.756,2.155,2.155,0,0,1-1.481-.511,1.652,1.652,0,0,1-.578-1.295,1.726,1.726,0,0,1,.725-1.481,3.418,3.418,0,0,1,2.039-.527h1.016v-.48a1.172,1.172,0,0,0-.327-.872,1.315,1.315,0,0,0-.965-.324,1.522,1.522,0,0,0-.937.282.831.831,0,0,0-.378.683h-1.049a1.44,1.44,0,0,1,.324-.883,2.214,2.214,0,0,1,.88-.674,2.961,2.961,0,0,1,1.221-.248,2.413,2.413,0,0,1,1.653.528,1.9,1.9,0,0,1,.621,1.453v2.81a3.435,3.435,0,0,0,.214,1.337v.09Zm-1.732-.8a1.834,1.834,0,0,0,.931-.254,1.536,1.536,0,0,0,.638-.66V-54.3h-.818q-1.918,0-1.918,1.123a.95.95,0,0,0,.327.767A1.258,1.258,0,0,0-323.2-52.13Zm5.382.8h-1.044V-60h1.044Zm3.086-7.582v1.478h1.14v.807h-1.14v3.786a.845.845,0,0,0,.152.55.642.642,0,0,0,.519.183,2.527,2.527,0,0,0,.5-.068v.846a3.026,3.026,0,0,1-.8.113,1.3,1.3,0,0,1-1.055-.423,1.818,1.818,0,0,1-.355-1.2v-3.786h-1.111v-.807h1.111v-1.478Zm3.4,2.217a2.219,2.219,0,0,1,1.805-.852q1.935,0,1.952,2.183v4.034h-1.044v-4.039a1.405,1.405,0,0,0-.3-.976,1.21,1.21,0,0,0-.922-.316,1.506,1.506,0,0,0-.891.271,1.839,1.839,0,0,0-.6.711v4.35h-1.044V-60h1.044Z" transform="translate(431.895 92.531)" fill="#0199ec"/>
    </g>
  </g>
</svg>
